<?xml version="1.0" encoding="UTF-8"?>
<!DOCTYPE svg PUBLIC "-//W3C//DTD SVG 1.1//EN" "http://www.w3.org/Graphics/SVG/1.1/DTD/svg11.dtd">
<!-- Creator: CorelDRAW 2020 (64 Bit Versão de avaliação) -->
<svg xmlns="http://www.w3.org/2000/svg" xml:space="preserve" width="500mm" height="500mm" version="1.1" style="shape-rendering:geometricPrecision; text-rendering:geometricPrecision; image-rendering:optimizeQuality; fill-rule:evenodd; clip-rule:evenodd"
viewBox="0 0 50000 50000"
 xmlns:xlink="http://www.w3.org/1999/xlink"
 xmlns:xodm="http://www.corel.com/coreldraw/odm/2003">
 <defs>
  <style type="text/css">
   <![CDATA[
    .fil0 {fill:#060122}
    .fil22 {fill:#090625}
    .fil33 {fill:#0A1325}
    .fil2 {fill:#0C0E51}
    .fil24 {fill:#0C132C}
    .fil37 {fill:#0D192B}
    .fil32 {fill:#0E1A32}
    .fil36 {fill:#121A35}
    .fil30 {fill:#132335}
    .fil11 {fill:#1499FD}
    .fil7 {fill:#159AFD}
    .fil41 {fill:#1D3245}
    .fil52 {fill:#21354B}
    .fil26 {fill:#233A4D}
    .fil29 {fill:#264254}
    .fil39 {fill:#283447}
    .fil49 {fill:#284757}
    .fil34 {fill:#293446}
    .fil25 {fill:#2B3A4C}
    .fil56 {fill:#2C4B5D}
    .fil9 {fill:#2D384A}
    .fil53 {fill:#2D4E61}
    .fil55 {fill:#2D5263}
    .fil12 {fill:#2E394B}
    .fil13 {fill:#2F3D4D}
    .fil54 {fill:#325464}
    .fil48 {fill:#366271}
    .fil47 {fill:#37616E}
    .fil50 {fill:#3A6573}
    .fil51 {fill:#3C6876}
    .fil3 {fill:#4F89CF}
    .fil45 {fill:#51929A}
    .fil19 {fill:#529DA1}
    .fil15 {fill:#56999E}
    .fil5 {fill:#569FA5}
    .fil4 {fill:#579EA4}
    .fil38 {fill:#5899A5}
    .fil6 {fill:#589FA5}
    .fil1 {fill:#58A1A7}
    .fil28 {fill:#59939A}
    .fil8 {fill:#599AA2}
    .fil14 {fill:#5A9B9E}
    .fil18 {fill:#5E9DA3}
    .fil31 {fill:#629B9D}
    .fil46 {fill:#A6856C}
    .fil40 {fill:#ACD2D4}
    .fil35 {fill:#B6D8D8}
    .fil43 {fill:#C0E1DF}
    .fil44 {fill:#C8E5E4}
    .fil42 {fill:#C97D56}
    .fil17 {fill:#D4E8E8}
    .fil23 {fill:#D89151}
    .fil16 {fill:#DBEDED}
    .fil21 {fill:#E5F3F3}
    .fil27 {fill:#E99652}
    .fil20 {fill:#EBF4F3}
    .fil10 {fill:#F3F7F7}
   ]]>
  </style>
 </defs>
 <g id="Camada_x0020_1">
  <metadata id="CorelCorpID_0Corel-Layer"/>
  <path class="fil0" d="M20427.03 34022.27c79.27,-109.83 398.66,-97.58 544.85,-131.68 148.18,-34.57 447.71,-177.92 476.94,-23.5 48.48,256.58 -566.14,264.43 -741.08,262.02 -206.59,-2.89 -207.54,23.98 -280.71,-106.84zm-11867.85 -350.09c28.52,-150.69 83.29,-186.77 264.81,-211.08 105.99,491.31 39.4,276.63 254.17,650.98 -114.17,3.31 -276.12,14.95 -386.46,6.1 -191.78,-15.37 -206.02,-27.57 -215.76,-191.36 -138.01,-74.54 -62.24,-406.13 -24.93,-508.19 4.78,8.46 10.79,12.01 12.11,26.58l25.4 96.76c0.19,0.62 -67.68,-17.07 70.66,130.21zm-2069.44 140.09c218.56,-9.79 432.81,46.54 648.05,82.58 219.74,36.8 458.39,20.43 460.95,231.75 -285.62,2.79 -750.5,52.92 -959.73,-87.5 -119.76,-80.4 -101.41,-104.1 -149.27,-226.83zm12783.98 -104.48c146.05,-22.27 77.61,-21.56 197.98,-91.42 -1.75,204.84 -45.97,368.67 -163.12,510.14l-358.32 7.85c37.93,-219.27 209.62,-185.36 211.98,-550.2 1.75,-267.6 -15.42,-530.47 -7.56,-805.26 97.33,84.85 206.58,223.43 229.81,408.64 27.48,219.26 -76.29,345.45 -110.77,520.25zm-9938.93 -407.17l76.95 92.89 9510.29 -23.27c145.76,967.11 -1353.71,689.11 -2136.22,689.11 -1895.39,0 -3790.83,0 -5686.27,0 -472.39,0 -974.91,16.17 -1443.61,-0.38 -438.15,-15.47 -810.28,-476.37 -482.66,-698.52l-137.63 -60.82c66.88,-1023.63 0.85,-3378.59 0.05,-4643.29 -0.43,-677.42 -113.94,-1214.94 261.69,-1362.74 128.22,-209.57 4179.12,-97.86 4765.45,-97.86 814.2,0.05 1628.45,0.71 2442.7,0.71 536.9,0 2015.71,-135.83 2274.18,180.86 330.7,294.33 174.71,2300.25 175.47,2880.8 0.57,397.95 65.74,2863.78 -62.52,2990.11l0 43.27 -9557.87 9.13zm-773.91 -199.35c32.59,-167.19 131.96,-363.47 271.48,-452.15l4.59 579.75c-163.17,-28.7 -163.69,-19.15 -276.07,-127.6zm-671.74 806.59c68.39,-45.27 9.74,14.94 95.53,-69.2 29.52,-404.62 100.74,-909.22 207.59,-1236.74 -33.96,114.93 -134.89,260.32 -174.1,420.27 -47.72,194.81 -22.7,393.41 -149.5,475.14 -100.89,76.85 -85.42,53.54 -172.82,49.42 -62.86,-128.98 -56.05,-102.3 5.58,-209 -77.05,-673.73 518.79,-1362.08 1099.21,-1386.48l-1.38 453.85 -235.34 14.99c189.75,378.98 38.64,69.91 -208.86,742.93 -174.85,475.47 -29.61,583.77 -33.91,960.11 -169.23,5.44 -403.72,34.33 -519.74,-46.4 -101.35,-70.57 -197.32,-258.8 -124.67,-433.66 233.55,-27.38 188.99,20.58 212.41,264.77zm11731.07 125.8c7.57,-509.75 85.32,-690.66 -165.06,-1119.97 -161.66,-277.15 -431.67,-463.36 -257.91,-964.46 990.48,107.46 1495.69,1909.91 732.48,2134.66 249.25,-585.14 247.26,-424.39 49.04,-1095.19 -117.34,-397.28 -244.38,-624.4 -627,-733.27 192.21,208.67 488.57,320.57 519.21,725.09 26.58,351.08 -33.76,917.92 -250.76,1053.14zm524.94 -4236.97l-374.63 482.19c-104.43,111.71 -37.98,82.95 -181.62,112.94 -83.52,-197.08 217.94,-522.15 373.26,-715.4l109.87 -116.82c105.52,-84.99 82.06,-62.81 201.58,9.84 -2.13,164.87 -12.54,163.55 -128.46,227.25zm178.68 -2240.5c195.05,5.06 294.8,138.38 373.97,314.94 114.37,254.93 -69.81,326.34 -190.5,423.87 -524.09,423.53 -287.99,-570.68 -183.47,-738.81zm-8463.43 -915.51c180.9,56.42 259.75,154.75 303.78,350.37l-559.94 0.52c43.42,-165.4 123.63,-278.01 256.16,-350.89zm843.57 -185.21c136.59,69.71 282.45,300.89 266.89,510.04 -38.74,8.84 -70.94,23.64 -112.23,21.66 -235.44,-11.45 161.65,40.96 -70.48,-9.56l-84.18 -522.14zm1398.87 228.53l-228.67 -5.01c47.77,-55.43 1011.42,-454.57 1112.64,-478.78 -96.63,269.82 -494.63,494.62 -883.97,483.79zm-1334.12 -1308.21c135.26,39.07 522,258.1 642.37,378.7 5.25,5.25 14.57,16.41 21.71,24.78 -220.49,-22.51 -503.37,-69.76 -665.83,-157.78l1.75 -245.7zm-3902.73 758.01c96.48,69.48 178.68,231.05 230.8,362.86 52.97,133.99 89.25,293.47 70.81,470.26 -103.49,-58.26 -253.42,-426.98 -390.39,-584.1l-589.12 -890.73 654.06 1847.05 -141.32 -27 -18.21 499.44 -514.25 -737.48c6.67,496.56 863.63,1389.04 457.4,1887.02 -45.83,429.35 -365.41,54.81 -573.89,229.29 135.13,281.46 680.59,849.81 568.5,1043.91l-1193.37 -642.28 897.2 1072.54 -696.91 -347.3 148.75 183.79c43.09,51.23 65.13,-80.21 68.58,157.5 -218.41,200.39 -562.3,-218.46 -1412.54,-101.83l319.39 64.8c13.1,196.37 14.75,16.74 -66.12,86.64 -445.82,91.52 -1820.05,858.57 -1435.58,1303.2 189.94,-33.11 293.57,-359.31 420.08,-495.14 168.42,-180.86 295.84,-283.26 550.2,-409.02 440.23,-217.66 1131.98,-331.88 1598.75,-88.02l-706.09 207.59c343.42,60.16 621.57,-124.35 1029.83,-12.4 235.48,64.61 636.74,281.42 669.19,485.31 -261.03,241.68 -586.33,235.44 -937.5,618.54 -385.51,420.55 -252.09,964.46 -382.72,1173.41l-1301.64 -160.38c248.97,170.79 1250.04,148.89 1291.75,450.73 -135.55,130.77 -602.69,-39.25 -805.92,-70.14 -346.78,-52.73 -471.21,-57.13 -710.1,-241.49 -176.09,-135.93 -795.15,-790.7 -896.69,-1066.39 -252.8,-686.36 198.6,-1039.61 372.93,-1436 65.93,-150.02 -96.44,-436.16 4.54,-795.66 70.94,-252.51 200.11,-451.54 290.59,-708.35 208.05,-590.68 55.99,-891.72 337.97,-1584.47 149.84,-368.1 473.25,-1064.73 516.62,-1439.69 93.03,-804.65 683.62,-2288.18 1118.69,-2768.99l155.09 181.42 76.47 140.05c274.56,379.12 627.72,781.52 796.33,1320.79l82.43 184.59c-167.19,-77.09 -93.64,-33.62 -140.61,-125.28l-95.68 -105.19 281.7 866.6zm3527.48 -965.5c-10.12,-289.64 -58.84,-1162.53 27.53,-1368.13l113.27 184.03c162.6,533.88 43.65,1492.9 23.74,2031.6 -5.39,144.44 67.4,1231.07 -207.72,958.03 -116.92,-116.06 -27.53,-952.07 -38.31,-1171.38 1.42,-279.52 -84.24,-220.73 -328.28,-313.05 -176.99,-66.98 -260.56,-125.86 -363.99,-234.07 309.97,2.84 479.11,151.44 729.87,220.16l12.77 -77.04c-222.67,-66.6 -429.45,-112.19 -606.15,-281.51l-102.16 -100.46c-115.4,-108.59 -63.23,-41.38 -136.92,-182.75 268.74,25.16 690.14,385.75 876.35,334.57zm403.77 -620.57c326.29,66.93 204.5,412.75 1095.61,429.17l-6.34 161.09c-426.47,71.65 -271.53,52.45 -927.9,-342.52 -125.52,-75.53 -175.37,-80.97 -161.37,-247.74zm1229.13 577.06c-14.57,-296.17 224.56,-251.9 478.92,-388.91 185.02,-99.66 385.84,-228.26 602.69,-298.4 -121.5,247.32 -744.77,639.21 -1081.61,687.31zm1496.16 1864.65c-181.85,15.89 -199.26,9.88 -207.58,-170.46 -20.34,-438.05 39.02,-920.43 -8.61,-1445.13 -22.42,-247.03 -84.52,-1304.56 59.64,-1542.94 92.08,-152.29 12.2,-68.43 138.43,-109.96 136.69,201.15 -33.24,133.09 -26.95,730.35 5.77,552.41 179.91,2197.61 45.07,2538.14zm2141.56 -1789.78c0.52,-19.91 3.79,-120.89 -2.98,-143.16 -32.63,-107.32 15.75,-22.14 -56.18,-88.64l-265 2022.67 -1055.51 7.28 654.72 -1010.01c-288.98,196.61 -788.95,1274.54 -1248.95,954.29 -9.31,-166.9 741.13,-695.53 896.36,-847.68 266.13,-260.79 550.71,-663.61 745.9,-1052.95 564.01,-1125.37 175.95,-2683.96 315.89,-3290.39 312.35,-3.36 2536.54,1651.2 2585.3,1673.33l179.02 222.77 -0.33 91.85c365.03,336.41 955.52,1699.82 1054.79,2401.22 136.21,962.33 713.46,1915.3 681.58,2757.12 -22.84,603.21 295.51,760.95 391.14,1330.77 52.69,314.09 -63.14,563.44 3.88,755.84 177.88,510.56 823.61,942.61 46.12,1835.04 -116.02,133.18 -782.28,771.82 -958.7,808.71 -194.95,-106.23 -639.44,-1062.98 -1081.47,-1319.18 73.83,225.37 669.76,1285.18 40.35,1292.27 -172.49,-124.25 -277.35,-920.57 -443.4,-1178.24 -310.74,-482.23 -534.45,-352.17 -952.64,-682.81 250.19,-564.05 1575.76,-768.85 2106.71,-252.23 -51.79,-449.22 -644.36,-282.5 -900.33,-468.56 1638.71,-680.59 1975.37,932.49 2311.97,1009.39 251.24,-262.87 -334.62,-794.2 -486.58,-922.56 -317.12,-267.88 -972.74,-387.02 -1083.74,-487.76l169.37 -20.58 130.25 -86.83 -247.22 4.59 -783.6 244.85c114.22,-271.1 523.66,-427.27 847.5,-496.47l34.01 -92.51 -456.74 -20.24 -30.93 -26.44 118.24 -448.84 -773.58 903.97c-49.19,199.97 27.62,82.29 62.53,266.18 -157.12,82.25 -479.16,248.59 -634.57,185.54 -95.35,-268.83 396.62,-716.2 399.98,-719.28 5.67,-5.15 16.84,-14.61 25.25,-21.99l685.09 -949.18 -329.7 165.06 -22.04 -37.98c-236.86,-460 916.07,-1587.16 1003.71,-1725.26l-22.18 -24.22 -472.15 293.28c-122.78,-476.98 -475.33,-705.23 -427.28,-926.67 60.59,-279.19 365.03,-678.7 420.28,-999.84 -121.74,70.62 -859.33,997.01 -1171.72,726.33 -86.36,-174.43 344.6,-1156.44 386.79,-1459.93 -609.93,310.35 -845.56,1291.22 -1105.12,1483.58 -480.1,-399.8 578.81,-1325.85 618.78,-1718.93 46.82,-170.17 53.3,-66.12 -24.08,-99.94l-688.53 1096.42 -206.45 -3022.07c-301.8,623.4 -127.27,3681.99 -312.39,3875.86l-803.51 30.03 -38.12 -13.52 170.21 -1783.35zm-6049.54 -2831.57c166.86,156.46 398,490.84 550.38,657.75l1240.77 1163.06c998.66,769.08 197.03,791.26 -111.95,590.96 -304.11,-197.13 30.46,-103.29 -210.75,-344.03 -196.56,-196.18 -476.23,-787.57 -621.94,-863.77 -308.14,24.31 -177.51,234.16 -320.1,397.86 -178.4,-248.83 -501.06,-496.42 -595.22,-939.07l258.61 163.27c-137.87,-250.58 -381.06,-327.01 -425.62,-713.13 100.93,128.12 114.03,213.87 260.75,293.42l-24.93 -406.32zm2430.4 2415.93c31.55,-217.04 441.89,-501.24 590.3,-680.4l1078.83 -1364.82c142.69,-200.77 314.99,-673.4 497.36,-724.01l-77.8 709.4 257.29 -275.69c-44.36,358.88 -347.1,565.52 -465.11,846.03l759.43 -647.48c161.14,188.94 -262.49,1160.69 -900.51,1221.84 -354.3,-820.3 -529.24,-77.47 -673.64,300.05 -78.61,205.36 -809.33,573.7 -1066.15,615.08zm-3588.16 -2901.42c3.12,547.59 -122.97,843.71 189.56,1260.77 288.08,384.33 509.62,281.27 526.98,986.17 10.87,443.35 197.27,2661.96 113.6,2844.95l-1046.61 23.7 244.04 -907.42c-163.31,217.13 -296.02,1048.5 -572.94,875.54 -146.48,-197.6 563.15,-1655.03 571.95,-2017.13l-809.9 1672.72 -50.37 78.23c-46.44,-32.26 -28.23,-8.14 -62.43,-79.6 -84.85,-354.82 -488.8,-1116.14 -695.53,-1455.21 -271.34,-445.15 -653.63,-936.46 -865.62,-1322.68l-65.69 -94.78c-261.88,-194.34 -30.22,-376.43 355.19,-665.69 430.3,-322.99 2072.94,-1372.48 2155.47,-1472.85 75.25,56.71 87.08,-92.13 56.43,113.56l-44.13 159.72zm3800.57 -2276.22c69.29,-63.09 -80.78,-36.42 164.54,-61.91 13.34,-1.37 142.27,5.77 161.33,7.71 104.71,10.55 212.78,30.79 316.08,51.51 623.5,125 1004.38,321.23 1281.82,808.81 191.55,336.7 796.08,1681.32 635.8,2075.11 -74.54,-132.24 -249.02,-812.17 -324.74,-1027.08 -115.4,-327.48 -263.25,-672.36 -431.1,-929.18 -527.68,-807.34 -1405.21,-684.42 -1803.73,-924.97zm1604.8 281.65c-260.13,-208.15 -908.41,-395.73 -1279.92,-415.02 -225.98,-11.78 -324.5,33.2 -332.64,-227.02l60.87 -21.85c286.85,-62.58 1443.86,251.28 1759.79,495.71 404.86,313.24 523.86,1009.86 722.59,1599.03 213.83,633.81 466.01,1200.14 92.56,1872.5 -196.04,352.92 -802.42,1008.02 -1255.05,1063.49 30.08,-191.5 406.94,-343.36 642.85,-515.57 931.12,-679.83 710.34,-1589.86 402.21,-2422.64 -200.25,-541.17 -420.84,-1114.63 -813.26,-1428.63zm-3390.08 -88.21l70.04 32.35c474.62,-58.22 571.86,-247.92 1265.41,-229.9l137.82 44.17c-53.21,38.03 71.18,-6.67 -84.85,40.96 -77.95,23.79 4.63,2.74 -83.67,3.69 -1284.04,127.23 -1721.81,668.1 -2310.65,1363.07 -277.86,327.95 -577.48,621.99 -726.8,1117.56 -175.65,583.02 102.5,989.76 490.46,1132.27l18.92 5.01c-144.49,-249.53 -501.24,-286 -453.71,-843.38 30.04,-351.7 220.26,-727.84 418.15,-890.16 -12.73,862.87 -89.44,1322.54 325.72,1930.67 122.03,126.57 718.57,704.95 715.12,852.37 -390.81,-221.87 -1536.98,-1159.13 -1651.29,-1611.61 -139.01,-550.24 252.32,-2271.21 339.53,-2880.38l-42.28 -0.85 -267.17 768.51c-247.55,-863.95 527.68,-2646.92 832.27,-3381.95 262.91,-634.57 476.55,-938.4 893.99,-1271.79 246.03,-196.51 1146.78,-602.08 1567.81,-562.16l58.51 815.67 39.87 1268.95 69.29 1539.96c-878.05,259.37 -1443.43,22.61 -2001.9,675.62 -239.37,279.9 -1096.89,1113.83 -1184.3,1480.65 441.04,-444.96 790.46,-919.81 1232.11,-1392.72 241.07,-258.14 406.42,-385.7 883.49,-443.07 260.13,-31.26 913.24,-197.51 1098.74,-140.42 32.96,342.37 -464.45,222.67 -815.67,302.41 -316.08,71.75 -561.45,168.47 -834.96,274.5zm3155.3 -2359.69l-28.99 9.84c140.23,473.15 1726.12,2069.96 1397.41,3522.89 -204.37,-210.89 -439.71,-1577.99 -1870.04,-2177.6l-18.02 56.42 685.37 516.05 87.97 86.36 -112.66 -49.85c-419.66,-46.54 -828.91,-378.61 -1098.59,-551.57l-30.93 36.75 160.14 263.96 -497.46 -95.82c-164.07,-227.12 -219.03,-3111.47 -214.96,-3635.6 993.79,198.88 1654.27,525.98 2045.89,1234 253.98,459.2 674.06,1920.03 693.26,2516.1 -112.61,-129.4 -396.1,-719.8 -548.4,-938.78 -125.14,-179.96 -521.67,-739.14 -649.99,-793.15zm-5288.64 2927.1c137.96,1323.63 303.45,805.65 -1097.5,1745.65 -938.74,629.89 -1577.56,967.78 -2093.33,1991.17 -1098.31,2179.16 -634.33,2035.48 -1042.78,3001.69 -179.96,425.76 -459.15,1039.71 -521.39,1520.8 -60.02,463.74 65.41,485.97 -129.55,871.57 -112.66,222.77 -244.38,474.62 -275.83,765.3 -47.62,439.95 71.09,533.5 -126.8,874.32 -259.56,447.09 -278.43,442.12 -278.95,976.61l0 25.87c0,571.53 422.78,879.71 711.66,1210.45 159.39,182.47 310.98,321.33 530,431.06 465.11,232.98 257.44,357.6 480.25,520.87l15016.49 40.44c131.67,-565.81 281.46,-379.6 950.98,-1051.63 373.08,-374.54 730.87,-567.98 730.87,-1311.38 0,-674.49 -400.46,-746.42 -400.46,-1241.38 0,-1336.02 -395.91,-1136 -402.53,-1799.9 -9.93,-1001.44 -78.94,-740.75 -453.15,-1829.36 -69.52,-202.33 -157.44,-360.58 -179.58,-581.22 -29.46,-293.66 -20.57,-444.06 -76.81,-684.04 -142.97,-610.12 -639.82,-1635.69 -932.3,-2111.02 -375.81,-610.68 -1025.57,-1028.4 -1641.83,-1401.52 -229.15,-138.81 -1784.81,-1048.69 -1811.3,-1208.03 -21,-126.14 5.11,-540.36 -14.9,-689.86 -153.8,-1150.81 -461.18,-3378.88 -1125.03,-4200.84 -517.75,-641.05 -1432.5,-1031.29 -2292.39,-1031.29 -531.84,0 -1296.39,314.09 -1614.5,547.83 -524.8,385.65 -647.72,615.56 -935.28,1227.14 -248.92,529.44 -1054.89,2665.61 -974.06,3390.7z"/>
  <path class="fil1" d="M9303.57 27475.59c-172.3,229.67 -138.53,270.96 -135.74,620.05 7.43,939.92 59.83,4890.42 -14.94,5201.48l181.9 3.5 9557.87 -9.13 0 -43.27c128.26,-126.33 63.09,-2592.16 62.52,-2990.11 -0.76,-580.55 155.23,-2586.47 -175.47,-2880.8 -125.95,246.41 -8494.32,30.08 -9476.14,98.28z"/>
  <polygon class="fil2" points="29720.05,31441.79 30785.34,29657.45 27918.07,29657.45 27399.09,28855.55 29479.78,28856.59 30633.71,26954.49 29039.27,26934.48 28638.53,26293.95 32803.42,26293.76 33899.12,24460.47 28758.99,24451.72 25315.65,30138.27 26286.59,31451.82 "/>
  <polygon class="fil3" points="42583.43,28803.71 41554.7,27076.94 40525.11,28857.58 42042.75,31460.76 43126.2,31459.43 47140.88,24457.68 45088.33,24451.72 "/>
  <path class="fil4" d="M21868.71 33251.25c-190.18,-22.9 -339.3,-209.48 -381.39,-402.68 -67.26,-308.94 36.98,-364.85 -153.57,-649.99 -176.46,-264.06 -581.27,-469.56 -893.95,-682.44 474.43,6.67 785.64,344.74 967.92,609.46 430.86,625.77 -110.77,688.91 529.76,1015.68 -32.02,56.62 -34.1,62.34 -68.77,109.97zm637.74 -640.02c-128.97,-131.24 -352.87,-600.13 -460.66,-806.82 -358.84,-688.2 -368.58,-399.13 -552.7,-713.27 355.38,62.43 505.83,359.92 651.26,655.95 106.99,217.8 328.81,609.98 362.1,864.14zm-647.67 -2262.16c43.28,-32.73 -87.97,-115.41 325.21,-9.32 202.76,52.07 206.44,-17.88 247.4,-1.52 45.17,124.01 34.58,212.41 10.22,336.28 -178.87,-49.71 -320.38,-246.13 -582.83,-325.44zm-2073.46 -5550.91c-7.23,8.61 -16.03,20.48 -20.1,26.96l-80.36 163.93c-51.69,95.78 -53.06,82.67 -117.9,127.18 -39.97,393.08 -1098.88,1319.13 -618.78,1718.93 259.56,-192.36 495.19,-1173.23 1105.12,-1483.58 -42.19,303.49 -473.15,1285.5 -386.79,1459.93 312.39,270.68 1049.98,-655.71 1171.72,-726.33 -55.25,321.14 -359.69,720.65 -420.28,999.84 -48.05,221.44 304.5,449.69 427.28,926.67l472.15 -293.28c45.17,-61.1 13.48,-55.57 118.72,-99.89 -34.53,121.88 -6.3,66.36 -96.54,124.11 -87.64,138.1 -1240.57,1265.26 -1003.71,1725.26l22.04 37.98 329.7 -165.06 -685.09 949.18 -17.21 335.76c139.66,-20.96 42.8,13.1 164.02,-46.21l773.58 -903.97 -118.24 448.84 30.93 26.44 456.74 20.24c86.55,45.07 87.21,-69.95 76.71,61.01l-110.72 31.5c-323.84,69.2 -733.28,225.37 -847.5,496.47l783.6 -244.85c88.07,-81.26 251.14,-68.39 344.36,-16.84 -78.79,102.25 -80.4,80.54 -227.39,99.08l-169.37 20.58c111,100.74 766.62,219.88 1083.74,487.76 151.96,128.36 737.82,659.69 486.58,922.56 -336.6,-76.9 -673.26,-1689.98 -2311.97,-1009.39 255.97,186.06 848.54,19.34 900.33,468.56 -530.95,-516.62 -1856.52,-311.82 -2106.71,252.23 418.19,330.64 641.9,200.58 952.64,682.81 166.05,257.67 270.91,1053.99 443.4,1178.24 629.41,-7.09 33.48,-1066.9 -40.35,-1292.27 442.03,256.2 886.52,1212.95 1081.47,1319.18 176.42,-36.89 842.68,-675.53 958.7,-808.71 777.49,-892.43 131.76,-1324.48 -46.12,-1835.04 -67.02,-192.4 48.81,-441.75 -3.88,-755.84 -95.63,-569.82 -413.98,-727.56 -391.14,-1330.77 31.88,-841.82 -545.37,-1794.79 -681.58,-2757.12 -99.27,-701.4 -689.76,-2064.81 -1054.79,-2401.22 -0.67,165.77 -329.99,640.76 -453.48,882.82 -125.76,246.37 -114.22,261.36 -173.53,176.32z"/>
  <polygon class="fil3" points="36258.7,31448.75 38319.49,31459.43 42341.59,24461.94 40281.66,24451.72 "/>
  <path class="fil5" d="M11096.47 20253.44c82.82,-465.72 460.24,-1009.77 744.06,-1123.52l-393.64 542.68c-108.74,162.84 -228.54,435.4 -350.42,580.84zm2498.13 -2337.99c-65.36,139.91 -56.61,112.62 -190.89,194.68 -229.19,140.04 -441.6,228.96 -717.57,279.09l908.46 -473.77zm-2694.6 1950.21l57.47 -27.01c0.85,-6.62 -10.5,18.4 -15.19,27.86 -87.21,609.17 -478.54,2330.14 -339.53,2880.38 114.31,452.48 1260.48,1389.74 1651.29,1611.61 3.45,-147.42 -593.09,-725.8 -715.12,-852.37 -161.13,-19.44 -83.05,10.17 -187.81,-64.23 -13.95,-9.88 -45.07,-41.29 -63.37,-61.77 -40.96,-45.78 -21.81,-21.94 -57.9,-76.14 -387.96,-142.51 -666.11,-549.25 -490.46,-1132.27 149.32,-495.57 448.94,-789.61 726.8,-1117.56 588.84,-694.97 1026.61,-1235.84 2310.65,-1363.07l30.7 -88.82c-693.55,-18.02 -790.79,171.68 -1265.41,229.9 -54.3,47.58 68.96,19.77 -106.04,74.21 -174.05,54.16 -70.56,-7.19 -93.17,-19.67 101.69,-127.94 31.17,-50.56 129.17,-86.89 273.51,-106.03 518.88,-202.75 834.96,-274.5 351.22,-79.74 848.63,39.96 815.67,-302.41 -185.5,-57.09 -838.61,109.16 -1098.74,140.42 -477.07,57.37 -642.42,184.93 -883.49,443.07 -441.65,472.91 -791.07,947.76 -1232.11,1392.72 87.41,-366.82 944.93,-1200.75 1184.3,-1480.65 558.47,-653.01 1123.85,-416.25 2001.9,-675.62l-69.29 -1539.96c20.76,701.87 166.2,845.42 -361.49,1145.23 -233.4,132.62 -739,377.37 -1029.21,380.4 220.31,-104.81 449.7,-220.64 674.54,-337.03 743.97,-385.13 582.88,-366.97 583.3,-1487.75 0.05,-202.94 -47.67,-957.74 92.99,-969.8l-58.51 -815.67c-421.03,-39.92 -1321.78,365.65 -1567.81,562.16 -417.44,333.39 -631.08,637.22 -893.99,1271.79 -304.59,735.03 -1079.82,2518 -832.27,3381.95l267.17 -768.51z"/>
  <path class="fil6" d="M6859.26 27663.03c111.29,46.63 203.94,94.73 316.98,150.83l235.39 122.78c210.66,145.9 -146.38,-129.12 51.18,39.49 7.9,6.76 18.49,19.44 24.88,25.35 6.71,6.15 16.74,18.21 25.21,27.19 -331.36,-68.48 -471.69,-136.16 -653.64,-365.64zm557.77 -1683.79c120.55,141.61 236,433.38 226.02,662.05 -107.5,-179.3 -208.71,-420.56 -226.02,-662.05zm-1323.16 4129.14l0 50.65c227.07,-14 795.99,114.6 961.44,224.51 138.62,36.33 214.01,74.21 351.97,115.6 39.83,11.91 180.72,56.14 187.58,57.08 284.3,40.3 124.01,21.14 181.19,-55.15l-148.75 -183.79 696.91 347.3 -897.2 -1072.54 1193.37 642.28c112.09,-194.1 -433.37,-762.45 -568.5,-1043.91l-434.79 -689.86c335.71,139.38 581.69,406.22 1008.68,460.57 406.23,-497.98 -450.73,-1390.46 -457.4,-1887.02l514.25 737.48 18.21 -499.44 141.32 27 -654.06 -1847.05 589.12 890.73c176.09,-68.68 45.5,58.08 87.88,-92.65 10.97,-39.07 3.07,-119.19 0.9,-156.37l-281.7 -866.6 95.68 105.19c74.4,15.27 48.01,25.96 58.18,-59.31 -168.61,-539.27 -521.77,-941.67 -796.33,-1320.79 -38.12,109.44 -422.26,638.78 -700.64,1363.12 -202.1,525.93 -916.6,2670.19 -968.53,3147.78 -117.77,1083.13 -536.38,1188.74 -520.59,1533.63l341.81 71.56z"/>
  <polygon class="fil7" points="31826.71,29167.75 34044.8,29176.93 35372.68,26938.26 34948.01,26305.06 35766.66,26293.76 36820.7,24459.29 34565.34,24451.72 "/>
  <path class="fil5" d="M9460.5 24931.21c-26.34,-341.86 -104,-1101.67 -2.74,-1362.74 76.14,112.94 60.25,246.32 73.02,406.22l13.29 1407.77 -83.57 -451.25zm210.51 1070.69c20.25,-262.02 333.2,-1154.64 504.18,-1393.72l85.75 -93.22c-31.88,287.56 -451.82,1286.26 -589.93,1486.94zm-1671.49 -2159.26c211.99,386.22 594.28,877.53 865.62,1322.68 206.73,339.07 610.68,1100.39 695.53,1455.21l112.8 1.37 809.9 -1672.72c-8.8,362.1 -718.43,1819.53 -571.95,2017.13 276.92,172.96 409.63,-658.41 572.94,-875.54l-244.04 907.42 1046.61 -23.7c83.67,-182.99 -102.73,-2401.6 -113.6,-2844.95 -17.36,-704.9 -238.9,-601.84 -526.98,-986.17 -312.53,-417.06 -186.44,-713.18 -189.56,-1260.77l-1198.48 1008.21c-256.06,213.12 -489.8,154.8 -738.39,382.77 -268.02,245.79 -403.81,483.5 -520.4,569.06z"/>
  <path class="fil6" d="M19388.27 24435.26l69.29 -2.17c-23.08,188.33 -70.09,327.76 -130.4,476.5 -29.98,74.02 -56.75,129.22 -87.49,193.4 -18.45,38.45 -26.68,65.6 -53.92,106.41 -64.37,96.58 -42.09,53.68 -82.25,89.72l287.42 -859.65c-242.53,-161.37 -148.18,-924.31 -111.48,-1233.81 134.94,342.9 106.23,834.49 108.83,1229.6zm-1783.34 532.6l53.63 -218.27c70.42,68.53 60.82,39.92 64.89,179.3l-59.36 270.77 -170.21 1783.35 38.12 13.52 803.51 -30.03c185.12,-193.87 10.59,-3252.46 312.39,-3875.86l206.45 3022.07 688.53 -1096.42c98.09,-259.84 227.35,-516.99 351.79,-778.91 71.04,-149.55 104.57,-231.66 183.51,-373.83 81.82,-147.33 184.64,-254.64 155.46,-439.15 -48.76,-22.13 -2272.95,-1676.69 -2585.3,-1673.33 -139.94,606.43 248.12,2165.02 -315.89,3290.39 -195.19,389.34 -479.77,792.16 -745.9,1052.95 -155.23,152.15 -905.67,680.78 -896.36,847.68 460,320.25 959.97,-757.68 1248.95,-954.29l-654.72 1010.01 1055.51 -7.28 265 -2022.67z"/>
  <polygon class="fil7" points="30425.8,31459.43 35486.38,31459.43 36545.34,29668.29 36551.67,29656.98 31466.92,29657.46 "/>
  <path class="fil8" d="M7232.19 33221.4c-86.74,49.28 -30.5,52.83 -275.54,24.22 -86.74,-10.12 -173.82,-19.16 -260.84,-28.43 -172.82,-18.44 -301.75,-35.56 -435.12,-106.41 216.09,-23.27 337.5,-11.02 549.91,4.02 380.07,26.91 328.8,-28.33 421.59,106.6zm74.16 -194.15c-48.57,-417.67 50.61,-649.99 341.48,-762.03 -64.46,83.24 -157.12,184.59 -212.45,330.41 -67.16,176.88 -33.77,307.71 -129.03,431.62zm-741.79 -520.4c-38.12,-695.49 554.45,-1125.5 1240.91,-1110.89 -327.48,224.61 -836.29,173.44 -1059.81,711.86 -80.69,194.48 -52.17,271.57 -181.1,399.03zm-483.93 -846.12c-205.22,211.5 -227.49,423.96 -415.17,623.88 8.94,-349.47 238.33,-615.94 467.9,-826.41 233.98,-214.48 171.78,-143.3 188.48,-115.16l97.48 -83.05c141.84,-133.85 360.77,-269.54 570.39,-327.95 -66.88,150.59 -105.38,123.63 -247.69,217.51 -317.45,209.33 -273.14,209.62 -476.6,401.59 -245.38,231.52 -176.94,134.32 -184.79,109.59zm604.73 -952.55c-115.31,-144.3 -328.57,-46.25 -613.34,-63.99 449.88,-219.03 574.03,-64.27 580.8,-265.75 -179.44,48 -443.21,-41.29 -684.52,33.43 -198.78,61.54 -321.94,213.07 -456.07,232.75 -14.29,-222.86 -8.42,-271.62 71.03,-461.09l510.61 -24.5 0 -50.65 -504.88 35.04c37.5,-252.42 206.68,-576.44 324.02,-785.73 216.48,-385.98 169.84,-421.12 225.65,-849.1 60.92,-467.67 315.14,-1199.24 458.96,-1673.2 544.14,-1793.65 480.29,-1485.47 1168.97,-2830.24l98.76 -152.91 -155.09 -181.42c-435.07,480.81 -1025.66,1964.34 -1118.69,2768.99 -43.37,374.96 -366.78,1071.59 -516.62,1439.69 -281.98,692.75 -129.92,993.79 -337.97,1584.47 -90.48,256.81 -219.65,455.84 -290.59,708.35 -100.98,359.5 61.39,645.64 -4.54,795.66 -174.33,396.39 -625.73,749.64 -372.93,1436 101.54,275.69 720.6,930.46 896.69,1066.39 238.89,184.36 363.32,188.76 710.1,241.49 203.23,30.89 670.37,200.91 805.92,70.14 -41.71,-301.84 -1042.78,-279.94 -1291.75,-450.73l1301.64 160.38c130.63,-208.95 -2.79,-752.86 382.72,-1173.41 351.17,-383.1 676.47,-376.86 937.5,-618.54 -32.45,-203.89 -433.71,-420.7 -669.19,-485.31 -408.26,-111.95 -686.41,72.56 -1029.83,12.4l706.09 -207.59c-466.77,-243.86 -1158.52,-129.64 -1598.75,88.02 -254.36,125.76 -381.78,228.16 -550.2,409.02 -126.51,135.83 -230.14,462.03 -420.08,495.14 -384.47,-444.63 989.76,-1211.68 1435.58,-1303.2z"/>
  <path class="fil4" d="M16616.53 19715.59c-160.85,-181.85 -240.73,-404 -369.76,-611.92l-354.58 -404.57c-90.33,-90.99 -53.87,-39.49 -111.66,-148.7 265.61,114.03 826.5,733.57 836,1165.19zm-1977.63 -826.17l-67.87 -107.69c178.4,37.69 50.65,-1.99 98.8,70.94 269.68,172.96 678.93,505.03 1098.59,551.57l24.69 -36.51 -685.37 -516.05c-178.45,-78.04 -39.49,17.22 -146.05,-110.63l164.07 54.21c1430.33,599.61 1665.67,1966.71 1870.04,2177.6 328.71,-1452.93 -1257.18,-3049.74 -1397.41,-3522.89 -84.04,-74.73 -14.71,79.41 -76.33,-92.8 -29.19,-81.54 14.33,-55.38 16.17,-59.4 89.86,86.74 34.76,26.91 89.15,142.36 128.32,54.01 524.85,613.19 649.99,793.15 152.3,218.98 435.79,809.38 548.4,938.78 -19.2,-596.07 -439.28,-2056.9 -693.26,-2516.1 -391.62,-708.02 -1052.1,-1035.12 -2045.89,-1234 -4.07,524.13 50.89,3408.48 214.96,3635.6l497.46 95.82 -160.14 -263.96z"/>
  <path class="fil9" d="M9334.79 33300.62l-181.9 -3.5 -117.25 2.51 137.63 60.82c-327.62,222.15 44.51,683.05 482.66,698.52 468.7,16.55 971.22,0.38 1443.61,0.38 1895.44,0 3790.88,0 5686.27,0 782.51,0 2281.98,278 2136.22,-689.11l-9510.29 23.27 -76.95 -92.89z"/>
  <path class="fil10" d="M9297.38 27293.6c-52.6,176.65 -49.19,49.09 6.19,181.99 981.82,-68.2 9350.19,148.13 9476.14,-98.28 -258.47,-316.69 -1737.28,-180.86 -2274.18,-180.86 -814.25,0 -1628.5,-0.66 -2442.7,-0.71 -586.33,0 -4637.23,-111.71 -4765.45,97.86z"/>
  <path class="fil11" d="M39450.73 33221.4l800.87 0 0 680.73 -800.87 0 0 -680.73zm-480.52 -160.19c0,1493.99 -196.28,1281.39 1481.64,1281.39 397.9,0 280.28,-850.24 280.28,-1281.39 0,-96.91 -183.42,-280.32 -280.28,-280.32l-1201.32 0c-96.91,0 -280.32,183.41 -280.32,280.32z"/>
  <path class="fil11" d="M41092.52 33061.21c0,1483.68 -183.89,1281.39 1401.57,1281.39 383.81,0 280.28,-777.4 280.28,-1001.07l-800.86 0 0 440.47 360.39 0c-49.71,186.16 -108.35,120.13 -760.85,120.13l0 -680.73 1041.17 0 0 -440.51 -1241.37 0c-96.91,0 -280.33,183.41 -280.33,280.32z"/>
  <path class="fil11" d="M35486.38 33782c0,-695.16 -152.81,-560.6 800.86,-560.6l0 680.73c-509.52,0 -800.86,74.26 -800.86,-120.13zm-440.52 -720.79c0,1488.97 -190.03,1281.39 1441.59,1281.39 397.95,0 280.32,-850.24 280.32,-1281.39 0,-96.91 -183.41,-280.32 -280.32,-280.32l-1161.26 0c-96.91,0 -280.33,183.41 -280.33,280.32z"/>
  <polygon class="fil11" points="26916.95,33221.4 27077.14,33221.4 27077.14,34342.6 28558.74,34342.6 28558.74,33902.13 27557.67,33902.13 27557.67,33782 28318.47,33782 28318.47,33341.53 27557.67,33341.53 27557.67,33221.4 28558.74,33221.4 28558.74,32780.89 26916.95,32780.89 "/>
  <path class="fil11" d="M32963.61 33221.4l160.14 0 0 1121.2 480.53 0 0 -760.8c149.98,109.87 501.91,760.8 640.72,760.8l400.46 0 0 -1561.71 -440.52 0 0 760.85 -579.9 -746.67 -661.43 -14.18 0 440.51z"/>
  <path class="fil11" d="M43174.82 33461.67c0,398.28 796.33,280.27 1201.32,280.27l0 160.19 -1081.18 0 0 440.47 1281.39 0c96.91,0 280.32,-183.41 280.32,-280.27l0 -1281.44 -480.53 0 0 480.52 -760.85 0 0 -480.52 -440.47 0 0 680.78z"/>
  <path class="fil11" d="M28919.13 33061.21c0,1506.38 -228.48,1281.39 1641.84,1281.39l0 -440.47 -1161.31 0 0 -680.73c828.39,0 760.85,-63.33 760.85,240.27l440.47 0 0 -400.46c0,-96.91 -183.37,-280.32 -280.27,-280.32l-1121.25 0c-96.91,0 -280.33,183.41 -280.33,280.32z"/>
  <polygon class="fil11" points="30881.31,33221.4 31081.51,33221.4 31081.51,34342.6 31522.02,34342.6 31522.02,33782 32242.82,33782 32242.82,34342.6 32683.28,34342.6 32683.28,32780.89 32242.82,32780.89 32242.82,33341.53 31522.02,33341.53 31522.02,32780.89 30881.31,32780.89 "/>
  <path class="fil12" d="M14044.95 24784.02c256.82,-41.38 987.54,-409.72 1066.15,-615.08 144.4,-377.52 319.34,-1120.35 673.64,-300.05 638.02,-61.15 1061.65,-1032.9 900.51,-1221.84l-759.43 647.48c118.01,-280.51 420.75,-487.15 465.11,-846.03l-257.29 275.69 77.8 -709.4c-182.37,50.61 -354.67,523.24 -497.36,724.01l-1078.83 1364.82c-148.41,179.16 -558.75,463.36 -590.3,680.4z"/>
  <path class="fil13" d="M11639.48 22774.41c-146.72,-79.55 -159.82,-165.3 -260.75,-293.42 44.56,386.12 287.75,462.55 425.62,713.13l-258.61 -163.27c94.16,442.65 416.82,690.24 595.22,939.07 142.59,-163.7 11.96,-373.55 320.1,-397.86 145.71,76.2 425.38,667.59 621.94,863.77 241.21,240.74 -93.36,146.9 210.75,344.03 308.98,200.3 1110.61,178.12 111.95,-590.96l-1240.77 -1163.06c-152.38,-166.91 -383.52,-501.29 -550.38,-657.75l24.93 406.32z"/>
  <polygon class="fil11" points="25034.9,33221.4 25635.56,33221.4 25635.56,34342.6 26116.09,34342.6 26116.09,33221.4 26716.75,33221.4 26716.75,32780.89 25034.9,32780.89 "/>
  <polygon class="fil11" points="37048.09,33221.4 37208.24,33221.4 37208.24,34342.6 38689.88,34342.6 38689.88,33902.13 37688.81,33902.13 37688.81,32780.89 37048.09,32780.89 "/>
  <path class="fil14" d="M7701.42 33337.75l-12.82 179.2 180.06 -19.62c126.8,-81.73 101.78,-280.33 149.5,-475.14 39.21,-159.95 140.14,-305.34 174.1,-420.27 -106.85,327.52 -178.07,832.12 -207.59,1236.74l-16.27 148.8 -79.26 -79.6c-23.42,-244.19 21.14,-292.15 -212.41,-264.77 -72.65,174.86 23.32,363.09 124.67,433.66 116.02,80.73 350.51,51.84 519.74,46.4 4.3,-376.34 -140.94,-484.64 33.91,-960.11 247.5,-673.02 398.61,-363.95 208.86,-742.93l235.34 -14.99 1.38 -453.85c-580.42,24.4 -1176.26,712.75 -1099.21,1386.48z"/>
  <path class="fil14" d="M14249.6 19245.99c8.14,260.22 106.66,215.24 332.64,227.02 371.51,19.29 1019.79,206.87 1279.92,415.02 392.42,314 613.01,887.46 813.26,1428.63 308.13,832.78 528.91,1742.81 -402.21,2422.64 -235.91,172.21 -612.77,324.07 -642.85,515.57 452.63,-55.47 1059.01,-710.57 1255.05,-1063.49 373.45,-672.36 121.27,-1238.69 -92.56,-1872.5 -198.73,-589.17 -317.73,-1285.79 -722.59,-1599.03 -315.93,-244.43 -1472.94,-558.29 -1759.79,-495.71l-60.87 21.85z"/>
  <path class="fil15" d="M19620.21 34033.66c217,-135.22 277.34,-702.06 250.76,-1053.14 -30.64,-404.52 -327,-516.42 -519.21,-725.09 382.62,108.87 509.66,335.99 627,733.27 198.22,670.8 200.21,510.05 -49.04,1095.19 763.21,-224.75 258,-2027.2 -732.48,-2134.66 -173.76,501.1 96.25,687.31 257.91,964.46 250.38,429.31 172.63,610.22 165.06,1119.97z"/>
  <path class="fil16" d="M6093.87 30108.38l-341.81 -71.56c-15.79,-344.89 402.82,-450.5 520.59,-1533.63 51.93,-477.59 766.43,-2621.85 968.53,-3147.78 278.38,-724.34 662.52,-1253.68 700.64,-1363.12l-76.47 -140.05 -98.76 152.91c-688.68,1344.77 -624.83,1036.59 -1168.97,2830.24 -143.82,473.96 -398.04,1205.53 -458.96,1673.2 -55.81,427.98 -9.17,463.12 -225.65,849.1 -117.34,209.29 -286.52,533.31 -324.02,785.73l504.88 -35.04z"/>
  <path class="fil17" d="M9035.64 33299.63l117.25 -2.51c74.77,-311.06 22.37,-4261.56 14.94,-5201.48 -2.79,-349.09 -36.56,-390.38 135.74,-620.05 -55.38,-132.9 -58.79,-5.34 -6.19,-181.99 -375.63,147.8 -262.12,685.32 -261.69,1362.74 0.8,1264.7 66.83,3619.66 -0.05,4643.29z"/>
  <path class="fil18" d="M15522.53 26989.44c134.84,-340.53 -39.3,-1985.73 -45.07,-2538.14 -6.29,-597.26 163.64,-529.2 26.95,-730.35 -126.23,41.53 -46.35,-42.33 -138.43,109.96 -144.16,238.38 -82.06,1295.91 -59.64,1542.94 47.63,524.7 -11.73,1007.08 8.61,1445.13 8.32,180.34 25.73,186.35 207.58,170.46z"/>
  <path class="fil8" d="M12393.47 25168.3l-31.12 230.15 -12.77 77.04 -7.47 257.86c-2.09,10.31 -12.11,40.15 -13.96,34.86 -1.84,-5.3 -10.4,22.98 -16.17,34.24 10.78,219.31 -78.61,1055.32 38.31,1171.38 275.12,273.04 202.33,-813.59 207.72,-958.03 19.91,-538.7 138.86,-1497.72 -23.74,-2031.6l-113.27 -184.03c-86.37,205.6 -37.65,1078.49 -27.53,1368.13z"/>
  <path class="fil14" d="M14257.36 19606.38c398.52,240.55 1276.05,117.63 1803.73,924.97 167.85,256.82 315.7,601.7 431.1,929.18 75.72,214.91 250.2,894.84 324.74,1027.08 160.28,-393.79 -444.25,-1738.41 -635.8,-2075.11 -277.44,-487.58 -658.32,-683.81 -1281.82,-808.81 -103.3,-20.72 -211.37,-40.96 -316.08,-51.51 -19.06,-1.94 -147.99,-9.08 -161.33,-7.71 -245.32,25.49 -95.25,-1.18 -164.54,61.91z"/>
  <path class="fil19" d="M7933.83 23747.86c60.82,-151.72 371.79,-490.79 524.56,-616.36 216.76,-178.12 489.42,-159.86 772.39,-388.49 252.28,-203.8 1025.81,-929.65 1270.14,-1020.13 30.65,-205.69 18.82,-56.85 -56.43,-113.56 -82.53,100.37 -1725.17,1149.86 -2155.47,1472.85 -385.41,289.26 -617.07,471.35 -355.19,665.69z"/>
  <path class="fil13" d="M11229.84 23303.99c36.09,54.2 16.94,30.36 57.9,76.14 18.3,20.48 49.42,51.89 63.37,61.77 104.76,74.4 26.68,44.79 187.81,64.23 -415.16,-608.13 -338.45,-1067.8 -325.72,-1930.67 -197.89,162.32 -388.11,538.46 -418.15,890.16 -47.53,557.38 309.22,593.85 453.71,843.38l-18.92 -5.01z"/>
  <path class="fil20" d="M7933.83 23747.86l65.69 94.78c116.59,-85.56 252.38,-323.27 520.4,-569.06 248.59,-227.97 482.33,-169.65 738.39,-382.77l1198.48 -1008.21 44.13 -159.72c-244.33,90.48 -1017.86,816.33 -1270.14,1020.13 -282.97,228.63 -555.63,210.37 -772.39,388.49 -152.77,125.57 -463.74,464.64 -524.56,616.36z"/>
  <path class="fil21" d="M14025.28 17502.89l-39.87 -1268.95c-140.66,12.06 -92.94,766.86 -92.99,969.8 -0.42,1120.78 160.67,1102.62 -583.3,1487.75 -224.84,116.39 -454.23,232.22 -674.54,337.03 290.21,-3.03 795.81,-247.78 1029.21,-380.4 527.69,-299.81 382.25,-443.36 361.49,-1145.23z"/>
  <path class="fil22" d="M6652.82 30378.44l453.05 69.76c-78.66,22.42 -3.08,2.93 -50.56,-64.66 -165.45,-109.91 -734.37,-238.51 -961.44,-224.51l-510.61 24.5c-79.45,189.47 -85.32,238.23 -71.03,461.09 134.13,-19.68 257.29,-171.21 456.07,-232.75 241.31,-74.72 505.08,14.57 684.52,-33.43z"/>
  <path class="fil15" d="M20323.83 27556.19c-104.52,168.13 -340.62,1162.34 183.47,738.81 120.69,-97.53 304.87,-168.94 190.5,-423.87 -79.17,-176.56 -178.92,-309.88 -373.97,-314.94z"/>
  <path class="fil23" d="M19273.72 33707.79c34.48,-174.8 138.25,-300.99 110.77,-520.25 -23.23,-185.21 -132.48,-323.79 -229.81,-408.64 -7.86,274.79 9.31,537.66 7.56,805.26 -2.36,364.84 -174.05,330.93 -211.98,550.2l358.32 -7.85c117.15,-141.47 161.37,-305.3 163.12,-510.14 -120.37,69.86 -51.93,69.15 -197.98,91.42z"/>
  <path class="fil24" d="M21868.71 33251.25c34.67,-47.63 36.75,-53.35 68.77,-109.97 -640.53,-326.77 -98.9,-389.91 -529.76,-1015.68 -182.28,-264.72 -493.49,-602.79 -967.92,-609.46 312.68,212.88 717.49,418.38 893.95,682.44 190.55,285.14 86.31,341.05 153.57,649.99 42.09,193.2 191.21,379.78 381.39,402.68z"/>
  <path class="fil25" d="M8051.88 29190.41c208.48,-174.48 528.06,200.06 573.89,-229.29 -426.99,-54.35 -672.97,-321.19 -1008.68,-460.57l434.79 689.86z"/>
  <path class="fil26" d="M20149.31 30579.54c-121.22,59.31 -24.36,25.25 -164.02,46.21l17.21 -335.76c-8.41,7.38 -19.58,16.84 -25.25,21.99 -3.36,3.08 -495.33,450.45 -399.98,719.28 155.41,63.05 477.45,-103.29 634.57,-185.54 -34.91,-183.89 -111.72,-66.21 -62.53,-266.18z"/>
  <path class="fil27" d="M8559.18 33672.18c-95.26,211.56 -88.97,12.77 -83.24,254.64 9.74,163.79 23.98,175.99 215.76,191.36 110.34,8.85 272.29,-2.79 386.46,-6.1 -214.77,-374.35 -148.18,-159.67 -254.17,-650.98 -181.52,24.31 -236.29,60.39 -264.81,211.08z"/>
  <path class="fil28" d="M6489.74 33812.27c47.86,122.73 29.51,146.43 149.27,226.83 209.23,140.42 674.11,90.29 959.73,87.5 -2.56,-211.32 -241.21,-194.95 -460.95,-231.75 -215.24,-36.04 -429.49,-92.37 -648.05,-82.58z"/>
  <path class="fil29" d="M6652.82 30378.44c-6.77,201.48 -130.92,46.72 -580.8,265.75 284.77,17.74 498.03,-80.31 613.34,63.99 80.87,-69.9 79.22,109.73 66.12,-86.64l-319.39 -64.8c850.24,-116.63 1194.13,302.22 1412.54,101.83 -3.45,-237.71 -25.49,-106.27 -68.58,-157.5 -57.18,76.29 103.11,95.45 -181.19,55.15 -6.86,-0.94 -147.75,-45.17 -187.58,-57.08 -137.96,-41.39 -213.35,-79.27 -351.97,-115.6 47.48,67.59 -28.1,87.08 50.56,64.66l-453.05 -69.76z"/>
  <path class="fil28" d="M20427.03 34022.27c73.17,130.82 74.12,103.95 280.71,106.84 174.94,2.41 789.56,-5.44 741.08,-262.02 -29.23,-154.42 -328.76,-11.07 -476.94,23.5 -146.19,34.1 -465.58,21.85 -544.85,131.68z"/>
  <path class="fil30" d="M19542.88 25016.29c77.38,33.82 70.9,-70.23 24.08,99.94 64.84,-44.51 66.21,-31.4 117.9,-127.18l80.36 -163.93c4.07,-6.48 12.87,-18.35 20.1,-26.96 55.91,-185.49 182.75,-407.4 267.51,-601.08 48.76,-111.38 87.12,-193.02 135.6,-303.22 72.59,-165.15 51.64,-230.23 224.23,-246.69l-179.02 -222.77c29.18,184.51 -73.64,291.82 -155.46,439.15 -78.94,142.17 -112.47,224.28 -183.51,373.83 -124.44,261.92 -253.7,519.07 -351.79,778.91z"/>
  <path class="fil31" d="M14026.37 25124.79c336.84,-48.1 960.11,-439.99 1081.61,-687.31 -216.85,70.14 -417.67,198.74 -602.69,298.4 -254.36,137.01 -493.49,92.74 -478.92,388.91z"/>
  <path class="fil32" d="M6564.56 32506.85c128.93,-127.46 100.41,-204.55 181.1,-399.03 223.52,-538.42 732.33,-487.25 1059.81,-711.86 -686.46,-14.61 -1279.03,415.4 -1240.91,1110.89z"/>
  <path class="fil33" d="M22506.45 32611.23c-33.29,-254.16 -255.11,-646.34 -362.1,-864.14 -145.43,-296.03 -295.88,-593.52 -651.26,-655.95 184.12,314.14 193.86,25.07 552.7,713.27 107.79,206.69 331.69,675.58 460.66,806.82z"/>
  <path class="fil28" d="M13892.85 24976.9c-891.11,-16.42 -769.32,-362.24 -1095.61,-429.17 -14,166.77 35.85,172.21 161.37,247.74 656.37,394.97 501.43,414.17 927.9,342.52l6.34 -161.09z"/>
  <path class="fil34" d="M14102.84 26684c389.34,10.83 787.34,-213.97 883.97,-483.79 -101.22,24.21 -1064.87,423.35 -1112.64,478.78l228.67 5.01z"/>
  <path class="fil34" d="M12362.35 25398.45l31.12 -230.15c-186.21,51.18 -607.61,-309.41 -876.35,-334.57 73.69,141.37 21.52,74.16 136.92,182.75l102.16 100.46c176.7,169.32 383.48,214.91 606.15,281.51z"/>
  <path class="fil34" d="M20145.15 29796.69l-83.76 -19.24 10.64 -217.85 -109.87 116.82c-155.32,193.25 -456.78,518.32 -373.26,715.4 143.64,-29.99 77.19,-1.23 181.62,-112.94l374.63 -482.19z"/>
  <path class="fil35" d="M19785.32 24798.16c59.31,85.04 47.77,70.05 173.53,-176.32 123.49,-242.06 452.81,-717.05 453.48,-882.82l0.33 -91.85c-172.59,16.46 -151.64,81.54 -224.23,246.69 -48.48,110.2 -86.84,191.84 -135.6,303.22 -84.76,193.68 -211.6,415.59 -267.51,601.08z"/>
  <path class="fil36" d="M9544.07 25382.46l-13.29 -1407.77c-12.77,-159.9 3.12,-293.28 -73.02,-406.22 -101.26,261.07 -23.6,1020.88 2.74,1362.74l83.57 451.25z"/>
  <path class="fil30" d="M9671.01 26001.9c138.11,-200.68 558.05,-1199.38 589.93,-1486.94l-85.75 93.22c-170.98,239.08 -483.93,1131.7 -504.18,1393.72z"/>
  <path class="fil37" d="M19390.92 24439.47l-2.65 -4.21c-2.6,-395.11 26.11,-886.7 -108.83,-1229.6 -36.7,309.5 -131.05,1072.44 111.48,1233.81z"/>
  <path class="fil38" d="M11860.4 26640.68c-132.53,72.88 -212.74,185.49 -256.16,350.89l559.94 -0.52c-44.03,-195.62 -122.88,-293.95 -303.78,-350.37z"/>
  <path class="fil39" d="M8777.21 26382.82c136.97,157.12 286.9,525.84 390.39,584.1 18.44,-176.79 -17.84,-336.27 -70.81,-470.26 -52.12,-131.81 -134.32,-293.38 -230.8,-362.86 2.17,37.18 10.07,117.3 -0.9,156.37 -42.38,150.73 88.21,23.97 -87.88,92.65z"/>
  <path class="fil37" d="M16616.53 19715.59c-9.5,-431.62 -570.39,-1051.16 -836,-1165.19 57.79,109.21 21.33,57.71 111.66,148.7l354.58 404.57c129.03,207.92 208.91,430.07 369.76,611.92z"/>
  <path class="fil34" d="M13432.8 25779.27c-7.14,-8.37 -16.46,-19.53 -21.71,-24.78 -120.37,-120.6 -507.11,-339.63 -642.37,-378.7l-1.75 245.7c162.46,88.02 445.34,135.27 665.83,157.78z"/>
  <path class="fil40" d="M11096.47 20253.44c121.88,-145.44 241.68,-418 350.42,-580.84l393.64 -542.68c-283.82,113.75 -661.24,657.8 -744.06,1123.52z"/>
  <path class="fil33" d="M21858.78 30349.07c262.45,79.31 403.96,275.73 582.83,325.44 24.36,-123.87 34.95,-212.27 -10.22,-336.28 -40.96,-16.36 -44.64,53.59 -247.4,1.52 -413.18,-106.09 -281.93,-23.41 -325.21,9.32z"/>
  <path class="fil41" d="M6080.63 31660.73l241.21 -317.69c-16.7,-28.14 45.5,-99.32 -188.48,115.16 -229.57,210.47 -458.96,476.94 -467.9,826.41 187.68,-199.92 209.95,-412.38 415.17,-623.88z"/>
  <path class="fil40" d="M6321.84 31343.04l-241.21 317.69c7.85,24.73 -60.59,121.93 184.79,-109.59 203.46,-191.97 159.15,-192.26 476.6,-401.59 142.31,-93.88 180.81,-66.92 247.69,-217.51 -209.62,58.41 -428.55,194.1 -570.39,327.95l-97.48 83.05z"/>
  <path class="fil42" d="M8560.88 33101.27c112.38,108.45 112.9,98.9 276.07,127.6l-4.59 -579.75c-139.52,88.68 -238.89,284.96 -271.48,452.15z"/>
  <path class="fil9" d="M12311.98 25802.45c5.77,-11.26 14.33,-39.54 16.17,-34.24 1.85,5.29 11.87,-24.55 13.96,-34.86l7.47 -257.86c-250.76,-68.72 -419.9,-217.32 -729.87,-220.16 103.43,108.21 187,167.09 363.99,234.07 244.04,92.32 329.7,33.53 328.28,313.05z"/>
  <path class="fil41" d="M7232.19 33221.4c-92.79,-134.93 -41.52,-79.69 -421.59,-106.6 -212.41,-15.04 -333.82,-27.29 -549.91,-4.02 133.37,70.85 262.3,87.97 435.12,106.41 87.02,9.27 174.1,18.31 260.84,28.43 245.04,28.61 188.8,25.06 275.54,-24.22z"/>
  <path class="fil39" d="M12788.15 26977.61c232.13,50.52 -164.96,-1.89 70.48,9.56 41.29,1.98 73.49,-12.82 112.23,-21.66 15.56,-209.15 -130.3,-440.33 -266.89,-510.04l84.18 522.14z"/>
  <path class="fil43" d="M19388.27 24435.26l2.65 4.21 -287.42 859.65c40.16,-36.04 17.88,6.86 82.25,-89.72 27.24,-40.81 35.47,-67.96 53.92,-106.41 30.74,-64.18 57.51,-119.38 87.49,-193.4 60.31,-148.74 107.32,-288.17 130.4,-476.5l-69.29 2.17z"/>
  <path class="fil44" d="M12686.14 18389.22c275.97,-50.13 488.38,-139.05 717.57,-279.09 134.28,-82.06 125.53,-54.77 190.89,-194.68l-908.46 473.77z"/>
  <path class="fil35" d="M7306.35 33027.25c95.26,-123.91 61.87,-254.74 129.03,-431.62 55.33,-145.82 147.99,-247.17 212.45,-330.41 -290.87,112.04 -390.05,344.36 -341.48,762.03z"/>
  <path class="fil26" d="M6859.26 27663.03c181.95,229.48 322.28,297.16 653.64,365.64 -8.47,-8.98 -18.5,-21.04 -25.21,-27.19 -6.39,-5.91 -16.98,-18.59 -24.88,-25.35 -197.56,-168.61 159.48,106.41 -51.18,-39.49l-235.39 -122.78c-113.04,-56.1 -205.69,-104.2 -316.98,-150.83z"/>
  <path class="fil45" d="M20072.03 29559.6l-10.64 217.85 83.76 19.24c115.92,-63.7 126.33,-62.38 128.46,-227.25 -119.52,-72.65 -96.06,-94.83 -201.58,-9.84z"/>
  <path class="fil35" d="M7643.05 26641.29c9.98,-228.67 -105.47,-520.44 -226.02,-662.05 17.31,241.49 118.52,482.75 226.02,662.05z"/>
  <path class="fil46" d="M8475.94 33926.82c-5.73,-241.87 -12.02,-43.08 83.24,-254.64 -138.34,-147.28 -70.47,-129.59 -70.66,-130.21l-25.4 -96.76c-1.32,-14.57 -7.33,-18.12 -12.11,-26.58 -37.31,102.06 -113.08,433.65 24.93,508.19z"/>
  <path class="fil47" d="M17604.93 24967.86c71.93,66.5 23.55,-18.68 56.18,88.64 6.77,22.27 3.5,123.25 2.98,143.16l59.36 -270.77c-4.07,-139.38 5.53,-110.77 -64.89,-179.3l-53.63 218.27z"/>
  <path class="fil48" d="M21311.38 30597.46c146.99,-18.54 148.6,3.17 227.39,-99.08 -93.22,-51.55 -256.29,-64.42 -344.36,16.84l247.22 -4.59 -130.25 86.83z"/>
  <path class="fil49" d="M12542.12 19832.17l-70.04 -32.35c-98,36.33 -27.48,-41.05 -129.17,86.89 22.61,12.48 -80.88,73.83 93.17,19.67 175,-54.44 51.74,-26.63 106.04,-74.21z"/>
  <path class="fil50" d="M7868.66 33497.33l-180.06 19.62 12.82 -179.2c-61.63,106.7 -68.44,80.02 -5.58,209 87.4,4.12 71.93,27.43 172.82,-49.42z"/>
  <path class="fil51" d="M8679.97 25372.39c46.97,91.66 -26.58,48.19 140.61,125.28l-82.43 -184.59c-10.17,85.27 16.22,74.58 -58.18,59.31z"/>
  <path class="fil52" d="M15598.39 17449.97l28.99 -9.84c-54.39,-115.45 0.71,-55.62 -89.15,-142.36 -1.84,4.02 -45.36,-22.14 -16.17,59.4 61.62,172.21 -7.71,18.07 76.33,92.8z"/>
  <path class="fil53" d="M13776.83 19691.09c88.3,-0.95 5.72,20.1 83.67,-3.69 156.03,-47.63 31.64,-2.93 84.85,-40.96l-137.82 -44.17 -30.7 88.82z"/>
  <path class="fil54" d="M15107.74 18851.68l18.02 -56.42 -164.07 -54.21c106.56,127.85 -32.4,32.59 146.05,110.63z"/>
  <path class="fil41" d="M21317.38 27718.41l22.18 24.22c90.24,-57.75 62.01,-2.23 96.54,-124.11 -105.24,44.32 -73.55,38.79 -118.72,99.89z"/>
  <path class="fil55" d="M21258.31 30263.6l110.72 -31.5c10.5,-130.96 9.84,-15.94 -76.71,-61.01l-34.01 92.51z"/>
  <path class="fil56" d="M7889.14 33907.86l79.26 79.6 16.27 -148.8c-85.79,84.14 -27.14,23.93 -95.53,69.2z"/>
  <path class="fil51" d="M9673.47 26621.9l-112.8 -1.37c34.2,71.46 15.99,47.34 62.43,79.6l50.37 -78.23z"/>
  <path class="fil55" d="M14638.9 18889.42l30.93 -36.75c-48.15,-72.93 79.6,-33.25 -98.8,-70.94l67.87 107.69z"/>
  <polygon class="fil48" points="15768.42,19404.24 15881.08,19454.09 15793.11,19367.73 "/>
  <path class="fil53" d="M10900 19865.66l42.28 0.85c4.69,-9.46 16.04,-34.48 15.19,-27.86l-57.47 27.01z"/>
 </g>
</svg>
